HIERARCHY
ROOT Hips
{
  OFFSET 0 0.240689 0
  CHANNELS 6 Xposition Yposition Zposition Zrotation Xrotation Yrotation
  JOINT Bip01_Spine0
  {
    OFFSET 0 -24.7459 49.7988
    CHANNELS 6 Xposition Yposition Zposition Zrotation Xrotation Yrotation
    JOINT Bip01_Pelvis
    {
      OFFSET 0 0 0
      CHANNELS 6 Xposition Yposition Zposition Zrotation Xrotation Yrotation
      JOINT Bip01_Spine0_Tail
      {
        OFFSET -6.47486 -3.86022 0
        CHANNELS 6 Xposition Yposition Zposition Zrotation Xrotation Yrotation
        JOINT Bip01_Spine0_Tail1
        {
          OFFSET 10.3837 -0.00825882 0
          CHANNELS 6 Xposition Yposition Zposition Zrotation Xrotation Yrotation
          JOINT Bip01_Spine0_Tail2
          {
            OFFSET 10.3837 -0.00826263 0
            CHANNELS 6 Xposition Yposition Zposition Zrotation Xrotation Yrotation
            JOINT Bip01_Spine0_Tail3
            {
              OFFSET 10.3837 -0.00825882 0
              CHANNELS 6 Xposition Yposition Zposition Zrotation Xrotation Yrotation
              JOINT Bip01_Spine0_Tail4
              {
                OFFSET 10.3837 -0.00826263 0
                CHANNELS 6 Xposition Yposition Zposition Zrotation Xrotation Yrotation
                End Site
                {
                  OFFSET 0 0 0
                }
              }
            }
          }
        }
      }
      JOINT Bip01_R_Thigh
      {
        OFFSET 0 -1.52588e-005 -8.75617
        CHANNELS 6 Xposition Yposition Zposition Zrotation Xrotation Yrotation
        JOINT Bip01_R_Calf
        {
          OFFSET 19.7638 0 0
          CHANNELS 6 Xposition Yposition Zposition Zrotation Xrotation Yrotation
          JOINT Bip01_R_Foot
          {
            OFFSET 18.6534 0 0
            CHANNELS 6 Xposition Yposition Zposition Zrotation Xrotation Yrotation
            JOINT Bip01_R_Toe0
            {
              OFFSET 5.09145 13.9567 0
              CHANNELS 6 Xposition Yposition Zposition Zrotation Xrotation Yrotation
              JOINT Bip01_R_Toe01
              {
                OFFSET 4.28803 0 0
                CHANNELS 6 Xposition Yposition Zposition Zrotation Xrotation Yrotation
                JOINT Bip01_R_Toe02
                {
                  OFFSET 3.85801 0 0
                  CHANNELS 6 Xposition Yposition Zposition Zrotation Xrotation Yrotation
                  End Site
                  {
                    OFFSET 0 0 0
                  }
                }
              }
            }
          }
        }
      }
      JOINT Bip01_L_Thigh
      {
        OFFSET 0 1.52588e-005 8.75617
        CHANNELS 6 Xposition Yposition Zposition Zrotation Xrotation Yrotation
        JOINT Bip01_L_Calf
        {
          OFFSET 19.7638 0 0
          CHANNELS 6 Xposition Yposition Zposition Zrotation Xrotation Yrotation
          JOINT Bip01_L_Foot
          {
            OFFSET 18.6534 0 0
            CHANNELS 6 Xposition Yposition Zposition Zrotation Xrotation Yrotation
            JOINT Bip01_L_Toe0
            {
              OFFSET 5.09144 13.9567 0
              CHANNELS 6 Xposition Yposition Zposition Zrotation Xrotation Yrotation
              JOINT Bip01_L_Toe01
              {
                OFFSET 4.28802 0 0
                CHANNELS 6 Xposition Yposition Zposition Zrotation Xrotation Yrotation
                JOINT Bip01_L_Toe02
                {
                  OFFSET 3.85801 0 0
                  CHANNELS 6 Xposition Yposition Zposition Zrotation Xrotation Yrotation
                  End Site
                  {
                    OFFSET 0 0 0
                  }
                }
              }
            }
          }
        }
      }
      JOINT Bip01_Spine
      {
        OFFSET 9.14835 -0.00640869 -1.1e-005
        CHANNELS 6 Xposition Yposition Zposition Zrotation Xrotation Yrotation
        JOINT Bip01_Spine1
        {
          OFFSET 8.04366 -0.00638199 0
          CHANNELS 6 Xposition Yposition Zposition Zrotation Xrotation Yrotation
          JOINT Bip01_Spine2
          {
            OFFSET 8.04367 -0.00639343 0
            CHANNELS 6 Xposition Yposition Zposition Zrotation Xrotation Yrotation
            JOINT Bip01_Spine3
            {
              OFFSET 8.04304 -0.00831222 0
              CHANNELS 6 Xposition Yposition Zposition Zrotation Xrotation Yrotation
              JOINT Bip01_Neck
              {
                OFFSET 10.6685 1.06813 0
                CHANNELS 6 Xposition Yposition Zposition Zrotation Xrotation Yrotation
                JOINT Bip01_R_Clavicle
                {
                  OFFSET -3.21661 -4.89635 -9.04802
                  CHANNELS 6 Xposition Yposition Zposition Zrotation Xrotation Yrotation
                  JOINT Bip01_R_UpperArm
                  {
                    OFFSET 19.0492 0 0
                    CHANNELS 6 Xposition Yposition Zposition Zrotation Xrotation Yrotation
                    JOINT Bip01_R_Forearm
                    {
                      OFFSET 10.3706 0 0
                      CHANNELS 6 Xposition Yposition Zposition Zrotation Xrotation Yrotation
                      JOINT Bip01_R_Hand
                      {
                        OFFSET 22.8632 0 0
                        CHANNELS 6 Xposition Yposition Zposition Zrotation Xrotation Yrotation
                        JOINT Bip01_R_Finger0
                        {
                          OFFSET 6.48259 0.103651 0.504496
                          CHANNELS 6 Xposition Yposition Zposition Zrotation Xrotation Yrotation
                          JOINT Bip01_R_Finger01
                          {
                            OFFSET 3.66847 0 0
                            CHANNELS 6 Xposition Yposition Zposition Zrotation Xrotation Yrotation
                            End Site
                            {
                              OFFSET 0 0 0
                            }
                          }
                        }
                      }
                    }
                  }
                }
                JOINT Bip01_L_Clavicle
                {
                  OFFSET -3.21661 -4.89641 9.04797
                  CHANNELS 6 Xposition Yposition Zposition Zrotation Xrotation Yrotation
                  JOINT Bip01_L_UpperArm
                  {
                    OFFSET 19.0492 0 0
                    CHANNELS 6 Xposition Yposition Zposition Zrotation Xrotation Yrotation
                    JOINT Bip01_L_Forearm
                    {
                      OFFSET 10.3706 0 0
                      CHANNELS 6 Xposition Yposition Zposition Zrotation Xrotation Yrotation
                      JOINT Bip01_L_Hand
                      {
                        OFFSET 22.8631 0 0
                        CHANNELS 6 Xposition Yposition Zposition Zrotation Xrotation Yrotation
                        JOINT Bip01_L_Finger0
                        {
                          OFFSET 6.48257 0.103655 -0.504492
                          CHANNELS 6 Xposition Yposition Zposition Zrotation Xrotation Yrotation
                          JOINT Bip01_L_Finger01
                          {
                            OFFSET 3.66844 0 0
                            CHANNELS 6 Xposition Yposition Zposition Zrotation Xrotation Yrotation
                            End Site
                            {
                              OFFSET 0 0 0
                            }
                          }
                        }
                      }
                    }
                  }
                }
                JOINT Bip01_Neck1
                {
                  OFFSET 7.52459 -0.00656509 0
                  CHANNELS 6 Xposition Yposition Zposition Zrotation Xrotation Yrotation
                  JOINT Bip01_Neck2
                  {
                    OFFSET 8.4783 -0.00588226 0
                    CHANNELS 6 Xposition Yposition Zposition Zrotation Xrotation Yrotation
                    JOINT Bip01_Head
                    {
                      OFFSET 8.41606 0 0
                      CHANNELS 6 Xposition Yposition Zposition Zrotation Xrotation Yrotation
                      JOINT EyesBlue
                      {
                        OFFSET 0 0 0
                        CHANNELS 6 Xposition Yposition Zposition Zrotation Xrotation Yrotation
                        JOINT EyesBlue_2
                        {
                          OFFSET 0 -0.500007 0
                          CHANNELS 6 Xposition Yposition Zposition Zrotation Xrotation Yrotation
                          End Site
                          {
                            OFFSET 0 0 0
                          }
                        }
                      }
                      JOINT Bip01_Head2_Eyeleds
                      {
                        OFFSET 6.52751 7.61746 2.2e-005
                        CHANNELS 6 Xposition Yposition Zposition Zrotation Xrotation Yrotation
                        End Site
                        {
                          OFFSET 0 0 0
                        }
                      }
                      JOINT Bip01_Head_Muzzle
                      {
                        OFFSET 2.88628 13.9448 3.88994
                        CHANNELS 6 Xposition Yposition Zposition Zrotation Xrotation Yrotation
                        End Site
                        {
                          OFFSET 0 0 0
                        }
                      }
                      JOINT Bip01_Head1_Jaw
                      {
                        OFFSET 0.271065 1.32405 0
                        CHANNELS 6 Xposition Yposition Zposition Zrotation Xrotation Yrotation
                        JOINT _Bip01_Head11_TungeControler
                        {
                          OFFSET 4.61616 5.82872 0
                          CHANNELS 6 Xposition Yposition Zposition Zrotation Xrotation Yrotation
                          JOINT _Bip01_Ponytail3_tunge
                          {
                            OFFSET 5.17785 2.98805 0
                            CHANNELS 6 Xposition Yposition Zposition Zrotation Xrotation Yrotation
                            JOINT Bip01_Ponytail31
                            {
                              OFFSET 5.57569 0 0
                              CHANNELS 6 Xposition Yposition Zposition Zrotation Xrotation Yrotation
                              JOINT Bip01_Ponytail32
                              {
                                OFFSET 2.93165 0 0
                                CHANNELS 6 Xposition Yposition Zposition Zrotation Xrotation Yrotation
                                JOINT Bip01_Ponytail3Nub
                                {
                                  OFFSET 3.30155 0 0
                                  CHANNELS 6 Xposition Yposition Zposition Zrotation Xrotation Yrotation
                                  End Site
                                  {
                                    OFFSET 0 0 0
                                  }
                                }
                              }
                            }
                          }
                        }
                        JOINT Bip01_Head_JawNub
                        {
                          OFFSET 15.5776 -0.000389099 0
                          CHANNELS 6 Xposition Yposition Zposition Zrotation Xrotation Yrotation
                          End Site
                          {
                            OFFSET 0 0 0
                          }
                        }
                      }
                      JOINT Bip01_Ponytail2
                      {
                        OFFSET 9.40334 1.03973 -6.51764
                        CHANNELS 6 Xposition Yposition Zposition Zrotation Xrotation Yrotation
                        JOINT Bip01_Ponytail21
                        {
                          OFFSET 2.77018 -0.00640106 1.33514e-005
                          CHANNELS 6 Xposition Yposition Zposition Zrotation Xrotation Yrotation
                          End Site
                          {
                            OFFSET 0 0 0
                          }
                        }
                      }
                      JOINT Bip01_Ponytail1
                      {
                        OFFSET 9.40368 1.03969 6.51768
                        CHANNELS 6 Xposition Yposition Zposition Zrotation Xrotation Yrotation
                        JOINT Bip01_Ponytail11
                        {
                          OFFSET 2.77018 -0.00640487 0
                          CHANNELS 6 Xposition Yposition Zposition Zrotation Xrotation Yrotation
                          End Site
                          {
                            OFFSET 0 0 0
                          }
                        }
                      }
                    }
                  }
                }
              }
            }
          }
        }
      }
    }
  }
}
MOTION
Frames:	4
Frame Time:	0.0333333
5.65741 1e-006 -4.79793e-007 -0 -90 -0 0.207755 -28.7009 45.5096 89.6887 0.0693552 94.6945 0 0 0 -90 0.00100284 -82.1631 -6.41481 -3.85879 -0.882923 143.166 -4.71491 6.26406 10.3771 -0.005313 6.9e-005 -16.5507 0.00152823 0.00115076 10.3784 -0.006689 0.000127 -26.3511 0.00094566 0.00125906 10.3794 -0.007161 0.000134 -22.1391 0.000509052 0.000679573 10.3791 -0.007006 0.000129 -23.9681 0.000529513 0.000721444 7.141e-006 -1.4573e-005 -8.75617 -129.011 -7.26645 -179.973 19.7638 -1e-006 -2.84217e-014 -82.454 -0.00021292 -0.00359797 18.6534 1.42109e-014 -1e-006 2.78843 -3.52821 -9.37217 5.09144 13.9567 -1.16832e-006 110.943 0.713168 -4.15591 4.288 -7.10543e-015 0 28.3554 0.00168668 0.000231172 3.85799 1e-006 -6.46594e-013 -45 -3.31031e-005 -1.91295e-005 -1.5141e-005 6.57298e-006 8.75617 -127.201 4.32421 -163.116 19.7638 -2.13163e-014 -1e-006 -86.4894 -1.79556e-005 -0.000591639 18.6534 2e-006 -3.73035e-014 -0.431425 2.56231 -1.90947 5.09143 13.9567 -1.67009e-007 96.6487 -5.60595 -1.50109 4.288 -3.55272e-015 -1.77636e-015 54.858 2.29082e-006 -1.05528e-006 3.85799 -2.33591e-013 -2e-006 -45 -1.48582e-005 -1.33296e-005 9.06253 -0.00627106 1.24733 -2.52586 0.371315 -7.8616 8.04405 -0.006362 -0.000581 2.18967 -0.000964692 -0.00405421 8.0447 -0.006248 -0.00072 5.75538 -1.25282 -0.0720746 8.04411 -0.008224 -0.000358 -6.65794 -0.00891916 -0.0514774 10.6677 1.06841 -2.98429e-006 -22.3018 -1.55419e-005 -0.00288944 -2.4241 -5.33907 -9.04409 -158.055 -74.4117 129.25 19.0492 2e-006 -1e-006 96.7936 -7.25005 -88.2141 10.3706 -9.99999e-007 3e-006 -79.3234 -0.000351775 -0.00373283 22.8631 1e-006 1e-006 -48.3435 36.4018 23.2099 6.48256 0.103653 0.504499 -28.7108 -12.2089 -9.75204 3.66843 5.24025e-014 2e-006 40.107 -1.93726e-006 1.37143e-005 -2.3961 -5.33915 9.05145 -157.313 79.5979 -123.088 19.0492 -3e-006 1.88294e-013 93.7672 19.4445 102.079 10.3706 -3e-006 -3e-006 -108.451 0.000182301 -0.00107359 22.8631 -7e-006 -3e-006 -18.2734 -20.6886 -3.69694 6.48257 0.103653 -0.504494 -49.142 7.95175 13.3484 3.66844 9.99999e-007 -1e-006 40.107 1.29822e-005 2.83397e-006 7.52516 -0.006637 3.4e-005 -9.20466 0.000850446 -0.157252 8.475 -0.006572 3e-005 -0.82218 0.0152038 -0.157538 8.41605 2.13163e-014 -1.77636e-015 -55.2807 0.22662 1.03645 -3e-006 7e-006 -7e-006 -23.1098 1.37701e-015 90 -4.29244e-006 -0.500004 5.77083e-006 -1.71079e-007 90 90 0 0 0 -106.006 -7.01671e-015 -180 4.77424 13.7959 3.88993 -22.989 1.37021e-015 90 0 0 0 -85.3358 -1.52588e-005 -180 0 0 0 -120.289 1.30788e-006 -1.71687e-006 0 0 0 133.74 -4.27127e-006 2.20408e-007 0 0 0 1.83152 1.19501e-006 -1.43254e-007 0 0 0 -17.65 4.71732e-006 9.95986e-007 0 0 0 -26.1943 -1.00187e-006 -7.00553e-007 15.5776 -0.000396 -6.99999e-006 1.59028e-015 0 -9.93923e-017 9.40546 1.04011 -6.51668 23.9352 -54.0186 69.1148 2.77379 -0.004741 0.001875 -17.5607 5.48145 15.839 9.40581 1.04012 6.51669 23.9329 54.0183 -69.1124 2.77379 -0.004741 -0.001816 -17.5266 -5.48721 -15.8377 
6.09261 1e-006 -4.39776e-007 -0 -90 -0 0.51628 -28.7009 45.9211 89.2211 0.193135 96.3685 0 0 0 -90 0.000156033 -82.4669 -6.41932 -3.85879 -0.848961 143.066 -4.54165 6.01442 10.3771 -0.005313 6.9e-005 -15.5319 0.00154845 0.00112341 10.3784 -0.006689 0.000127 -24.0828 0.000994752 0.00122065 10.3794 -0.007161 0.000134 -19.5152 0.000539628 0.000655556 10.3791 -0.007006 0.000129 -22.8302 0.000543735 0.000710786 7.13566e-006 -1.45512e-005 -8.75617 -125.738 -4.65058 179.113 19.7638 -1e-006 -1.77636e-014 -85.1346 -0.00015343 -0.00359491 18.6534 7.10543e-015 -1e-006 10.089 -4.02325 -6.71562 5.09144 13.9567 -1.13951e-006 106.55 1.40371 -3.18082 4.288 1.06581e-014 -3.55271e-015 24.9976 0.00167252 0.000326428 3.85799 1e-006 -6.50147e-013 -45 -3.39918e-005 -1.92227e-005 -1.51357e-005 6.55122e-006 8.75617 -129.933 3.44408 -162.503 19.7638 -2.66454e-014 -1e-006 -84.7528 -3.5896e-005 -0.000590823 18.6534 2e-006 -3.55271e-014 -3.56152 2.02105 -2.13499 5.09143 13.9567 -5.50823e-008 97.0549 -6.11776 -2.33277 4.288 1.06581e-014 1.77636e-015 54.3788 2.9798e-006 -1.20614e-006 3.85799 -2.79332e-013 -2e-006 -45 -1.54824e-005 -1.37309e-005 9.06889 -0.00627106 1.19933 -2.79193 0.399691 -7.56623 8.04405 -0.006362 -0.000581 2.34396 -0.0935853 -0.393052 8.0447 -0.006248 -0.00072 5.97771 -0.459796 -0.105371 8.04411 -0.008224 -0.000358 -6.86049 -0.0112903 -0.0665379 10.6677 1.06841 -2.98991e-006 -22.2725 -7.98509e-005 -0.287314 -2.43695 -5.33571 -9.04278 -158.249 -74.3529 129.225 19.0492 2e-006 -1e-006 96.6299 -10.356 -89.2585 10.3706 -9.99999e-007 3e-006 -88.4492 -5.55572e-005 -0.0037334 22.8631 1e-006 1e-006 -45.3688 34.3649 24.5151 6.48256 0.103653 0.504499 -28.4415 -12.4489 -9.70699 3.66843 9.50351e-014 2e-006 40.107 -2.17939e-006 1.47636e-005 -2.3977 -5.33594 9.05301 -157.242 79.0362 -123.959 19.0492 -3e-006 1.63425e-013 94.6599 16.9523 103.973 10.3706 -3e-006 -3e-006 -109.981 0.000198937 -0.00107402 22.8631 -7e-006 -3e-006 -15.905 -20.6687 -2.51824 6.48257 0.103653 -0.504494 -47.0258 8.44299 13.0466 3.66844 9.99999e-007 -1e-006 40.107 1.34328e-005 2.3628e-006 7.52516 -0.006637 3.4e-005 -8.02388 0.00130821 -0.215676 8.475 -0.006572 3e-005 -0.256103 0.0138978 -0.213906 8.41605 -3.55271e-015 8.88179e-016 -58.7976 0.336833 0.185251 -3e-006 7e-006 -7e-006 -23.1098 1.37701e-015 90 -4.28922e-006 -0.500004 5.77775e-006 5.18282e-008 90 90 0 0 0 -105.426 -7.01671e-015 -180 4.91947 13.7844 3.88993 -22.989 1.37021e-015 90 0 0 0 -85.3358 -1.52588e-005 -180 0 0 0 -120.289 2.22415e-006 -2.86751e-006 0 0 0 133.74 -1.17274e-005 3.96823e-007 0 0 0 1.83152 4.44732e-006 -3.86951e-007 0 0 0 -17.65 1.00048e-005 2.32059e-006 0 0 0 -26.1943 -1.6605e-006 -1.19689e-006 15.5776 -0.000396 -6.99998e-006 -0 -1.73937e-016 -0 9.40546 1.04011 -6.51668 25.7285 -55.6061 71.5008 2.77379 -0.004741 0.001875 -20.2779 7.56769 17.2367 9.40581 1.04012 6.51669 25.7263 55.6053 -71.4993 2.77379 -0.004741 -0.001816 -20.148 -7.59364 -17.2373 
6.52778 1e-006 -3.99761e-007 -0 -90 -0 0.658726 -28.7009 46.1832 89.003 0.236823 97.8553 0 0 0 -90 0.000265156 -83.0202 -6.42711 -3.85879 -0.7869 142.967 -4.21542 5.56638 10.3771 -0.005313 6.9e-005 -14.7866 0.00156293 0.00110317 10.3784 -0.006689 0.000127 -21.3257 0.00105231 0.00117139 10.3794 -0.007161 0.000134 -16.6444 0.000571785 0.000627706 10.3791 -0.007006 0.000129 -21.0392 0.000565684 0.000693445 7.1259e-006 -1.45513e-005 -8.75617 -121.29 -1.00162 177.252 19.7638 -1e-006 -2.13163e-014 -90.2538 4.94152e-006 -0.00359522 18.6534 4.26326e-014 -1e-006 22.1431 -3.4441 -2.91901 5.09144 13.9567 -1.04572e-006 99.7685 2.32815 -1.59407 4.288 7.10543e-015 -3.55271e-015 19.8054 0.00160825 0.000472401 3.85799 1e-006 -1.3145e-013 -45 -1.35328e-005 1.92128e-006 -1.51259e-005 6.55131e-006 8.75617 -132.833 2.47811 -162.17 19.7638 -2.13163e-014 -1e-006 -83.5448 -2.11952e-005 -0.000593036 18.6534 2e-006 -3.19744e-014 -6.2409 1.51566 -1.96972 5.09143 13.9567 -3.30247e-008 97.6049 -6.61242 -3.10219 4.288 -1.77636e-015 0 53.4562 2.84809e-006 -1.11715e-006 3.85799 -2.72671e-013 -2e-006 -45 -1.52838e-005 -1.36634e-005 9.07991 -0.00627106 1.11166 -3.03905 0.366776 -6.96078 8.04405 -0.006362 -0.000581 2.64707 -1.11512e-006 -1.72999e-005 8.0447 -0.006248 -0.00072 6.24601 0.0604143 0.0184938 8.04411 -0.008224 -0.000358 -7.07099 0.00616751 0.0117293 10.6677 1.06841 -3.03126e-006 -22.1632 -1.00496e-005 5.93675e-005 -2.44082 -5.32931 -9.04551 -158.209 -74.3039 129.443 19.0492 2e-006 -1e-006 95.8999 -11.9233 -90.2513 10.3706 -9.99999e-007 3e-006 -96.6897 0.000217668 -0.00373307 22.8631 1e-006 1e-006 -41.1206 32.4788 24.8699 6.48256 0.103653 0.504499 -28.293 -12.5808 -9.68176 3.66843 1.14575e-013 2e-006 40.107 -1.58756e-006 1.50599e-005 -2.41589 -5.33237 9.05034 -157.613 78.5015 -124.42 19.0492 -3e-006 1.45661e-013 95.7821 14.863 104.858 10.3706 -3e-006 -3e-006 -111.707 0.000217644 -0.00107407 22.8631 -7e-006 -3e-006 -13.8982 -21.2551 -1.96574 6.48257 0.103653 -0.504494 -44.9258 8.91805 12.7296 3.66843 9.99999e-007 -1e-006 40.107 1.45694e-005 1.06525e-006 7.52516 -0.006637 3.40003e-005 -5.64313 0.000789831 -0.0176197 8.475 -0.006572 3.00002e-005 0.854313 0.0127525 -0.0128037 8.41605 1.42109e-014 4.44089e-015 -63.8176 -0.000584203 0.0290428 -3e-006 7e-006 -7e-006 -23.1098 1.37701e-015 90 -4.29154e-006 -0.500004 5.7845e-006 -58.6275 90 148.628 0 0 0 -104.846 -7.01671e-015 -180 5.0647 13.7729 3.88993 -22.989 1.37021e-015 90 0 0 0 -85.3358 -7.01671e-015 -180 0 0 0 -120.289 -1.00107e-006 1.33717e-006 0 0 0 133.74 1.46897e-005 -1.5897e-007 0 0 0 1.83152 -7.01936e-006 4.74353e-007 0 0 0 -17.65 -8.79838e-006 -2.36948e-006 0 0 0 -26.1943 8.33883e-007 5.96524e-007 15.5776 -0.000396 -7.00001e-006 1.59028e-015 -9.93923e-017 -5.96354e-016 9.40546 1.04011 -6.51668 29.1167 -56.8011 75.7295 2.77379 -0.004741 0.001875 -22.811 9.87318 19.051 9.40581 1.04012 6.51669 29.1155 56.8008 -75.7287 2.77379 -0.004741 -0.001816 -22.5179 -9.93706 -19.0518 
6.96298 1e-006 -3.59744e-007 -0 -90 -0 0.665332 -28.7009 46.3092 88.9916 0.228878 99.133 0 0 0 -90 0.00048372 -83.7674 -6.43672 -3.85879 -0.702976 142.881 -3.76921 4.96588 10.3771 -0.005313 6.9e-005 -14.3027 0.00157219 0.00108993 10.3784 -0.006689 0.000127 -18.2553 0.00111355 0.00111334 10.3794 -0.007161 0.000134 -13.6586 0.000603705 0.000597071 10.3791 -0.007006 0.000129 -18.772 0.000592674 0.000670524 7.11265e-006 -1.457e-005 -8.75617 -115.905 2.22536 174.788 19.7638 -1e-006 -3.55271e-015 -94.1142 0.000117502 -0.00359625 18.6534 4.61853e-014 -1e-006 33.3998 -1.9191 0.798486 5.09144 13.9567 -9.20125e-007 93.3677 3.03468 -0.0274959 4.288 -8.88179e-015 3.55271e-015 14.9214 0.00155625 0.000606658 3.85799 1e-006 -3.55271e-015 -45 -8.87782e-006 7.01367e-006 -1.51127e-005 6.57002e-006 8.75617 -135.433 1.53667 -162.112 19.7638 -2.13163e-014 -1e-006 -82.5901 -3.10588e-005 -0.00059264 18.6534 2e-006 -3.55271e-014 -7.80784 1.14153 -1.5906 5.09143 13.9567 -7.98888e-008 97.7726 -7.05285 -3.70238 4.288 3.55272e-015 0 52.1659 1.97341e-006 -8.62203e-007 3.85799 -2.39364e-013 -2e-006 -45 -1.44009e-005 -1.31569e-005 9.0935 -0.00627105 0.993102 -3.33864 0.335275 -6.1798 8.04405 -0.006362 -0.000581 2.85451 0.0127981 0.0526801 8.0447 -0.006248 -0.00072 6.46722 0.218216 0.100423 8.04411 -0.008224 -0.000358 -7.49024 0.0235718 0.0614964 10.6677 1.06841 -3.03416e-006 -22.0333 -0.0127877 -0.0890173 -2.47563 -5.32165 -9.04051 -158.828 -74.3734 128.908 19.0492 2e-006 -1e-006 95.292 -11.9559 -91.3931 10.3706 -1e-006 3e-006 -101.922 0.000389972 -0.00373176 22.8631 1e-006 1e-006 -37.1812 31.0253 24.3995 6.48256 0.103653 0.504499 -28.2318 -12.6353 -9.6706 3.66843 1.86517e-013 2e-006 40.107 -1.71396e-006 1.5568e-005 -2.39653 -5.33297 9.05511 -157.013 77.9458 -125.734 19.0492 -3e-006 1.59872e-013 96.4423 13.3313 105.079 10.3706 -3e-006 -3e-006 -113.294 0.000234272 -0.00107303 22.8631 -7e-006 -3e-006 -12.4392 -21.7643 -2.29148 6.48257 0.103653 -0.504494 -43.124 9.31531 12.4441 3.66844 9.99999e-007 -1e-006 40.107 1.49459e-005 4.47634e-007 7.52516 -0.006637 3.40004e-005 -2.53591 -0.000459229 -0.00145984 8.475 -0.006572 3.00003e-005 2.24455 0.0135517 0.0152871 8.41605 -2.84217e-014 1.77636e-015 -69.9375 -0.121572 0.185548 -3e-006 7e-006 -7e-006 -23.1098 1.37701e-015 90 -4.29261e-006 -0.500004 5.79219e-006 -54.0498 90 144.05 0 0 0 -104.265 -1.52588e-005 -180 5.20993 13.7615 3.88993 -22.989 1.37021e-015 90 0 0 0 -85.3358 7.01671e-015 -180 0 0 0 -120.289 -1.3433e-006 1.63486e-006 0 0 0 133.74 2.17668e-005 -2.80598e-007 0 0 0 1.83152 -9.63525e-006 7.04261e-007 0 0 0 -17.65 -1.36072e-005 -3.7563e-006 0 0 0 -26.1943 9.73185e-007 7.95269e-007 15.5776 -0.000396 -7.00002e-006 1.59028e-015 -1.49089e-016 -0 9.40546 1.04011 -6.51668 33.8018 -57.4529 81.4353 2.77379 -0.004741 0.001875 -25.1739 12.2578 21.1822 9.40581 1.04012 6.51669 33.8027 57.4528 -81.4366 2.77379 -0.004741 -0.001816 -24.6792 -12.3754 -21.1785 
